<svg width="587" height="587" viewBox="0 0 587 587" fill="none" xmlns="http://www.w3.org/2000/svg">
    <path fill-rule="evenodd" clip-rule="evenodd"
        d="M31.0712 239.532C59.022 265.863 103.026 264.549 129.356 236.598L160.736 266.159C118.08 311.44 46.7921 313.568 1.51074 270.912L31.0712 239.532Z"
        fill="#1F1E5F" />
    <path fill-rule="evenodd" clip-rule="evenodd"
        d="M224.545 586.966C224.545 387.13 386.544 225.13 586.38 225.13L586.38 0.779043C262.638 0.779015 0.193388 263.224 0.193359 586.966L224.545 586.966Z"
        fill="#F35C5C" />
    <path fill-rule="evenodd" clip-rule="evenodd"
        d="M414.929 586.966C414.929 492.231 491.726 415.433 586.461 415.433L586.461 309.076C432.987 309.076 308.572 433.492 308.572 586.966L414.929 586.966Z"
        fill="#F35C5C" />
    <path fill-rule="evenodd" clip-rule="evenodd"
        d="M135.241 402.528C164.185 431.473 211.113 431.473 240.058 402.528L272.553 435.023C225.662 481.914 149.637 481.914 102.746 435.023L135.241 402.528Z"
        fill="#1F1E5F" />
    <path fill-rule="evenodd" clip-rule="evenodd"
        d="M313.642 234.159C341.593 260.49 385.597 259.176 411.927 231.225L443.307 260.786C400.651 306.067 329.363 308.195 284.082 265.539L313.642 234.159Z"
        fill="#1F1E5F" />
</svg>
